PathFileType	4	(X/Y/Z)	/Users/itak/Documents/Research/Walk-IL/dataset/trc/00151_00007.trc
DataRate	CameraRate	NumFrames	NumMarkers	Units	OrigDataRate	OrigDataStartFrame	OrigNumFrames
100.000000	100.000000	4	53	mm	100.000000	136	544
Frame#	Time	RPSI			LPSI			L3			STRN			T10			C7			CLAV			RBAK			LBAK			LSHO			LUPA			LAEL			LAOL			LWTS			LWPS			LFRA			LIFD			LHPS			LHTS			RSHO			RUPA			RAEL			RAOL			RWTS			RWPS			RFRA			RIFD			RHTS			RHPS			RBHD			LFHD			RFHD			LBHD			LHIP			RHIP			RASI			LASI			LKNE			LTHI			LANK			LTIP			LTOE			LMT1			LMT5			LHEE			RKNE			RTHI			RANK			RTIP			RTOE			RMT1			RMT5			RHEE			
		X1	Y1	Z1	X2	Y2	Z2	X3	Y3	Z3	X4	Y4	Z4	X5	Y5	Z5	X6	Y6	Z6	X7	Y7	Z7	X8	Y8	Z8	X9	Y9	Z9	X10	Y10	Z10	X11	Y11	Z11	X12	Y12	Z12	X13	Y13	Z13	X14	Y14	Z14	X15	Y15	Z15	X16	Y16	Z16	X17	Y17	Z17	X18	Y18	Z18	X19	Y19	Z19	X20	Y20	Z20	X21	Y21	Z21	X22	Y22	Z22	X23	Y23	Z23	X24	Y24	Z24	X25	Y25	Z25	X26	Y26	Z26	X27	Y27	Z27	X28	Y28	Z28	X29	Y29	Z29	X30	Y30	Z30	X31	Y31	Z31	X32	Y32	Z32	X33	Y33	Z33	X34	Y34	Z34	X35	Y35	Z35	X36	Y36	Z36	X37	Y37	Z37	X38	Y38	Z38	X39	Y39	Z39	X40	Y40	Z40	X41	Y41	Z41	X42	Y42	Z42	X43	Y43	Z43	X44	Y44	Z44	X45	Y45	Z45	X46	Y46	Z46	X47	Y47	Z47	X48	Y48	Z48	X49	Y49	Z49	X50	Y50	Z50	X51	Y51	Z51	X52	Y52	Z52	X53	Y53	Z53	

137	1.36	-1330.381713867188	1123.054077148438	-544.4042358398438	-1330.2021484375	1124.831298828125	-680.5625	-1335.26611328125	1157.70654296875	-615.7460327148438	-1114.316040039062	1351.937133789062	-617.025146484375	-1370.272705078125	1309.155029296875	-620.94677734375	-1327.3671875	1600.229614257812	-638.6681518554688	-1147.59765625	1487.5771484375	-623.7620849609375	-1389.831787109375	1419.004150390625	-548.9523315429688	-1331.546020507812	1579.487670898438	-741.2343139648438	-1243.041137695312	1560.877807617188	-806.139892578125	-1265.003662109375	1429.742431640625	-875.2821655273438	-1256.67578125	1208.692749023438	-894.6175537109375	-1325.946044921875	1199.109619140625	-841.3638305664062	-1161.103759765625	952.6316528320312	-838.4601440429688	-1240.166870117188	925.7255859375	-870.3344116210938	-1241.061889648438	1092.005981445312	-895.2269287109375	-1146.306518554688	759.6952514648438	-815.5192260742188	-1209.92236328125	851.2220458984375	-866.8299560546875	-1146.204223632812	863.968017578125	-845.9733276367188	-1278.7158203125	1583.431762695312	-455.6421813964844	-1299.876098632812	1511.30517578125	-391.3749084472656	-1313.731201171875	1216.261962890625	-365.6455383300781	-1312.57861328125	1212.901611328125	-462.304931640625	-1164.09765625	977.2139282226562	-361.2913513183594	-1240.825317382812	958.9491577148438	-335.2640686035156	-1290.449096679688	1143.962036132812	-346.2475280761719	-1133.69677734375	783.4668579101562	-370.9171752929688	-1133.144653320312	870.2938842773438	-349.6071472167969	-1201.769165039062	860.7579345703125	-324.5353088378906	-1299.1923828125	1759.131958007812	-555.5325317382812	-1137.823852539062	1844.2958984375	-678.8392944335938	-1143.05322265625	1842.854858398438	-549.3134155273438	-1302.005981445312	1763.779174804688	-691.0415649414062	-1240.588500976562	1031.981201171875	-786.9459228515625	-1203.764282226562	1026.842407226562	-425.2689819335938	-1122.43994140625	1096.130615234375	-480.2410888671875	-1130.802978515625	1092.765380859375	-746.9011840820312	-1230.811645507812	528.2193603515625	-738.2705688476562	-1245.808227539062	674.3102416992188	-773.3630981445312	-1372.207275390625	35.61830520629883	-716.5811157226562	-1340.32666015625	285.1625671386719	-757.4134521484375	-1141.67529296875	35.46709442138672	-655.4608154296875	-1224.05859375	37.87631225585938	-623.964111328125	-1246.916259765625	35.49361801147461	-738.95751953125	-1441.519897460938	35.07330703735352	-655.7455444335938	-1185.728271484375	529.8534545898438	-460.3813781738281	-1176.392822265625	810.46337890625	-434.6058959960938	-1370.840454101562	36.06032943725586	-443.4154357910156	-1234.566040039062	400.2239074707031	-440.1407470703125	-1144.142944335938	43.07634353637695	-508.4027099609375	-1207.165649414062	33.53806686401367	-547.3372192382812	-1236.509643554688	36.70091247558594	-429.6748046875	-1431.580932617188	41.88940811157227	-487.6163330078125	
138	1.37	-1330.094482421875	1122.630126953125	-545.115478515625	-1329.884887695312	1124.713745117188	-681.3206787109375	-1334.850708007812	1157.7919921875	-616.6021728515625	-1113.345092773438	1351.56640625	-617.935791015625	-1369.445556640625	1309.44384765625	-622.1056518554688	-1325.614379882812	1600.3427734375	-640.08447265625	-1146.267211914062	1487.242309570312	-624.7610473632812	-1388.779052734375	1419.299926757812	-550.4009399414062	-1329.633666992188	1579.549560546875	-742.645263671875	-1241.041748046875	1560.646362304688	-807.3526611328125	-1263.090576171875	1429.567138671875	-876.5218505859375	-1255.020874023438	1208.496826171875	-895.9190063476562	-1324.471923828125	1199.001831054688	-842.9243774414062	-1159.956909179688	952.3173217773438	-839.4327392578125	-1238.936401367188	925.4983520507812	-871.587890625	-1239.5361328125	1091.7900390625	-896.4822387695312	-1145.409912109375	759.3572998046875	-816.415283203125	-1208.795166015625	850.9554443359375	-867.9566040039062	-1145.27490234375	863.5590209960938	-846.9335327148438	-1277.423583984375	1583.445434570312	-456.9525451660156	-1298.881713867188	1511.3134765625	-392.7512817382812	-1313.598999023438	1216.283447265625	-367.2125854492188	-1311.939086914062	1212.918701171875	-463.8759765625	-1163.374389648438	977.6124877929688	-362.0663452148438	-1240.17138671875	959.0795288085938	-336.5201110839844	-1290.253784179688	1143.968627929688	-347.6873168945312	-1132.159301757812	784.0157470703125	-371.5079040527344	-1132.107788085938	870.802978515625	-350.1904296875	-1200.813842773438	861.039794921875	-325.6002197265625	-1296.891235351562	1759.199340820312	-556.867431640625	-1134.87646484375	1843.817749023438	-679.6909790039062	-1140.4521484375	1842.309204101562	-550.1847534179688	-1299.313110351562	1763.95751953125	-692.3855590820312	-1240.37353515625	1031.818603515625	-787.771728515625	-1203.305297851562	1026.185913085938	-426.0959167480469	-1122.152221679688	1095.791381835938	-481.2616271972656	-1130.4267578125	1092.433471679688	-747.92236328125	-1230.603393554688	528.0370483398438	-738.776123046875	-1245.656616210938	674.1591796875	-774.0023803710938	-1372.214477539062	35.52944946289062	-716.6461791992188	-1340.283081054688	284.9822387695312	-757.8040771484375	-1141.740356445312	35.46781158447266	-655.343994140625	-1224.10302734375	37.86772918701172	-623.92578125	-1246.929443359375	35.48056793212891	-738.946533203125	-1441.56298828125	35.03072357177734	-655.8311767578125	-1178.0634765625	529.661376953125	-462.7669067382812	-1173.174926757812	810.1779174804688	-436.43115234375	-1370.444702148438	38.36376190185547	-443.5964050292969	-1228.88330078125	400.5784606933594	-441.8397216796875	-1143.865600585938	42.96026992797852	-508.2728881835938	-1206.866333007812	33.84565353393555	-547.1926879882812	-1236.1728515625	36.81518173217773	-429.6979064941406	-1431.04052734375	45.18635177612305	-487.9282836914062	
139	1.38	-1329.815795898438	1122.219604492188	-545.835693359375	-1329.58056640625	1124.587646484375	-682.0773315429688	-1334.461303710938	1157.89794921875	-617.4683837890625	-1112.361572265625	1351.183227539062	-618.8330688476562	-1368.61328125	1309.7451171875	-623.2620239257812	-1323.813720703125	1600.473022460938	-641.490234375	-1144.917358398438	1486.912475585938	-625.7483520507812	-1387.713623046875	1419.643920898438	-551.8322143554688	-1327.6728515625	1579.611328125	-744.0371704101562	-1239.007568359375	1560.400512695312	-808.5474853515625	-1261.133666992188	1429.3798828125	-877.7403564453125	-1253.271606445312	1208.287109375	-897.2145385742188	-1322.922485351562	1198.873901367188	-844.503662109375	-1158.79833984375	951.9492797851562	-840.4160766601562	-1237.675903320312	925.2523803710938	-872.88671875	-1237.923828125	1091.560546875	-897.7433471679688	-1144.6142578125	758.9793701171875	-817.2799072265625	-1207.654296875	850.6600341796875	-869.117919921875	-1144.32080078125	863.1083374023438	-847.9080200195312	-1276.074462890625	1583.478637695312	-458.2474365234375	-1297.848754882812	1511.362548828125	-394.1098937988281	-1313.48046875	1216.342407226562	-368.7459716796875	-1311.358032226562	1212.972534179688	-465.4154052734375	-1162.693359375	978.024169921875	-362.8664855957031	-1239.5517578125	959.2355346679688	-337.7593688964844	-1290.0908203125	1144.007202148438	-349.1073303222656	-1130.697143554688	784.5730590820312	-372.1329650878906	-1131.145629882812	871.32470703125	-350.8199157714844	-1199.89697265625	861.3461303710938	-326.6712036132812	-1294.529907226562	1759.272094726562	-558.2119140625	-1131.862548828125	1843.318481445312	-680.5547485351562	-1137.794921875	1841.764282226562	-551.0694580078125	-1296.55419921875	1764.12060546875	-693.7472534179688	-1240.225830078125	1031.65087890625	-788.6134643554688	-1202.8681640625	1025.546997070312	-426.9186706542969	-1121.856689453125	1095.473510742188	-482.2901916503906	-1130.081420898438	1092.118896484375	-748.9586181640625	-1230.371215820312	527.860107421875	-739.2855834960938	-1245.512451171875	674.0069580078125	-774.640380859375	-1372.218383789062	35.44678115844727	-716.7008056640625	-1340.2236328125	284.8082885742188	-758.173828125	-1141.799926757812	35.46674728393555	-655.2332763671875	-1224.141723632812	37.86072158813477	-623.892822265625	-1246.943237304688	35.46462249755859	-738.9429931640625	-1441.599731445312	34.99789810180664	-655.903076171875	-1169.930908203125	529.6728515625	-465.1421813964844	-1169.861938476562	810.0138549804688	-438.2850646972656	-1369.927856445312	41.10530471801758	-443.7677307128906	-1222.794921875	401.2200927734375	-443.5412902832031	-1143.519409179688	42.83686828613281	-508.0867004394531	-1206.480712890625	34.22055435180664	-547.0172119140625	-1235.758178710938	36.98321533203125	-429.7235107421875	-1430.320068359375	49.07760238647461	-488.2733764648438	
140	1.39	-1329.53759765625	1121.829467773438	-546.5700073242188	-1329.284423828125	1124.453369140625	-682.837646484375	-1334.102172851562	1158.024658203125	-618.349365234375	-1111.366943359375	1350.788696289062	-619.72216796875	-1367.772094726562	1310.052978515625	-624.4163818359375	-1321.9658203125	1600.615234375	-642.8790283203125	-1143.540283203125	1486.591186523438	-626.722900390625	-1386.629760742188	1420.029663085938	-553.2416381835938	-1325.673095703125	1579.671630859375	-745.406982421875	-1236.944213867188	1560.1435546875	-809.7213134765625	-1259.1396484375	1429.179931640625	-878.9336547851562	-1251.432373046875	1208.067626953125	-898.4945678710938	-1321.299682617188	1198.729614257812	-846.0849609375	-1157.63037109375	951.5294799804688	-841.41162109375	-1236.389892578125	924.9923706054688	-874.2205810546875	-1236.2333984375	1091.321044921875	-899.001220703125	-1143.893676757812	758.564453125	-818.1332397460938	-1206.502685546875	850.34033203125	-870.3140258789062	-1143.319702148438	862.6315307617188	-848.9002075195312	-1274.66357421875	1583.523681640625	-459.5215454101562	-1296.7724609375	1511.450561523438	-395.4482421875	-1313.356323242188	1216.43896484375	-370.23291015625	-1310.831420898438	1213.0625	-466.9120483398438	-1162.051025390625	978.4424438476562	-363.6932983398438	-1238.965209960938	959.4160766601562	-338.9715270996094	-1289.944580078125	1144.077026367188	-350.4962158203125	-1129.328857421875	785.1265869140625	-372.7980346679688	-1130.255981445312	871.844970703125	-351.4990844726562	-1199.023803710938	861.66552734375	-327.739013671875	-1292.111328125	1759.359130859375	-559.5602416992188	-1128.781494140625	1842.793090820312	-681.4307861328125	-1135.077270507812	1841.218627929688	-551.9679565429688	-1293.741333007812	1764.272705078125	-695.1231079101562	-1240.12548828125	1031.482055664062	-789.4735717773438	-1202.448364257812	1024.954345703125	-427.7640075683594	-1121.554931640625	1095.183959960938	-483.3252258300781	-1129.768188476562	1091.816284179688	-750.0088500976562	-1230.12890625	527.6884155273438	-739.8056030273438	-1245.380859375	673.854248046875	-775.2877807617188	-1372.22119140625	35.3710823059082	-716.7462768554688	-1340.139770507812	284.6417541503906	-758.5303344726562	-1141.852905273438	35.46373748779297	-655.1312866210938	-1224.175537109375	37.85566329956055	-623.8663330078125	-1246.958251953125	35.44589614868164	-738.9483032226562	-1441.631225585938	34.97077941894531	-655.9654541015625	-1161.315063476562	529.9102783203125	-467.489990234375	-1166.458740234375	809.9906005859375	-440.1372375488281	-1369.25048828125	44.30996322631836	-443.9312133789062	-1216.240478515625	402.1614990234375	-445.246826171875	-1143.09326171875	42.70819473266602	-507.8262939453125	-1205.986083984375	34.66450881958008	-546.8090209960938	-1235.26953125	37.21669387817383	-429.7530517578125	-1429.374755859375	53.60502624511719	-488.6524658203125	
